<svg width="9" height="10" viewBox="0 0 9 10" fill="none" xmlns="http://www.w3.org/2000/svg">
<path d="M4.5 5V0.5C4.5 0.358333 4.548 0.239667 4.644 0.144C4.74 0.0483333 4.85867 0.000333333 5 0H8.5C8.64166 0 8.7605 0.0479999 8.8565 0.144C8.9525 0.24 9.00033 0.358667 9 0.5V3C9 3.14167 8.952 3.2605 8.856 3.3565C8.76 3.4525 8.64133 3.50033 8.5 3.5H6L4.5 5ZM8.475 9.025C7.4 9.025 6.352 8.78533 5.331 8.306C4.31 7.82666 3.40583 7.19333 2.6185 6.406C1.83117 5.61867 1.19783 4.7145 0.7185 3.6935C0.239167 2.6725 -0.000332986 1.62467 3.47464e-07 0.55C3.47464e-07 0.4 0.0500003 0.275 0.15 0.175C0.25 0.0749999 0.375 0.025 0.525 0.025H2.55C2.66667 0.025 2.77083 0.0624999 2.8625 0.1375C2.95417 0.2125 3.00833 0.308333 3.025 0.425L3.35 2.175C3.36667 2.29167 3.3645 2.398 3.3435 2.494C3.3225 2.59 3.27467 2.67533 3.2 2.75L2 3.975C2.35 4.575 2.7875 5.1375 3.3125 5.6625C3.8375 6.1875 4.41667 6.64167 5.05 7.025L6.225 5.85C6.3 5.775 6.398 5.71883 6.519 5.6815C6.64 5.64417 6.75867 5.63367 6.875 5.65L8.6 6C8.71666 6.025 8.8125 6.08133 8.8875 6.169C8.9625 6.25667 9 6.35867 9 6.475V8.5C9 8.65 8.95 8.775 8.85 8.875C8.75 8.975 8.625 9.025 8.475 9.025Z" fill="black" fill-opacity="0.6"/>
</svg>
