<svg width="9" height="12" viewBox="0 0 9 12" fill="none" xmlns="http://www.w3.org/2000/svg">
<path d="M4.5 6C4.80938 6 5.07431 5.8824 5.29481 5.6472C5.51531 5.412 5.62537 5.1296 5.625 4.8C5.625 4.47 5.51475 4.1874 5.29425 3.9522C5.07375 3.717 4.809 3.5996 4.5 3.6C4.19062 3.6 3.92569 3.7176 3.70519 3.9528C3.48469 4.188 3.37463 4.4704 3.375 4.8C3.375 5.13 3.48525 5.4126 3.70575 5.6478C3.92625 5.883 4.191 6.0004 4.5 6ZM4.5 12C2.99062 10.63 1.86337 9.3576 1.11825 8.1828C0.373125 7.008 0.000375 5.9204 0 4.92C0 3.42 0.452438 2.225 1.35731 1.335C2.26219 0.445 3.30975 0 4.5 0C5.69062 0 6.73837 0.445 7.64325 1.335C8.54812 2.225 9.00037 3.42 9 4.92C9 5.92 8.62725 7.0076 7.88175 8.1828C7.13625 9.358 6.009 10.6304 4.5 12Z" fill="black" fill-opacity="0.6"/>
</svg>
